<svg width="20" height="20" viewBox="0 0 20 20" fill="none" xmlns="http://www.w3.org/2000/svg">
<path d="M-0.000183105 6.93041V13.0696C-0.000183105 18.6719 1.3279 20 6.93023 20H13.0694C18.6717 20 19.9998 18.6719 19.9998 13.0696V6.93041C19.9998 1.32808 18.6717 0 13.0694 0H6.93023C1.3279 0 -0.000183105 1.34121 -0.000183105 6.93041ZM14.2669 3.85425V5.30608C14.2669 5.85607 13.8306 6.02544 12.8282 7.01478C11.9951 7.87413 11.8844 8.25474 11.8844 8.46661C11.8844 8.76598 11.9688 8.85097 12.3794 8.85097H13.6913C14.0431 8.85097 14.2544 8.96159 14.2544 9.89282C14.2544 11.4328 13.3232 13.1415 11.5882 14.3396C9.04578 16.1464 7.14147 16.6407 6.74773 16.6407C6.53586 16.6407 6.33774 16.5564 6.33774 16.1495V14.6945C6.33774 14.3264 6.50711 14.1864 6.90085 14.0433C8.97766 13.324 10.797 12.1259 10.797 11.6315C10.797 11.449 10.7126 11.3646 10.247 11.3646H8.10206C7.11272 11.4203 7.02772 11.9409 6.67648 11.9409C6.50711 11.9409 6.33774 11.8009 6.33774 11.5765V9.28846C6.33774 8.97909 6.50711 8.86535 6.87148 8.86535H9.76514C10.0776 8.86535 10.1882 8.72535 10.1882 8.64098C10.1882 8.45849 10.0776 8.30224 9.73889 7.96413C8.56705 6.91916 6.76023 6.17043 6.76023 6.17043C6.54836 6.07293 6.35024 5.90357 6.35024 5.53545V4.0805C6.35024 3.64426 6.57461 3.54676 6.8871 3.64426C7.73333 3.82676 10.2464 5.60732 10.2464 5.60732C10.5001 5.76044 10.6107 5.81919 10.8939 5.60732C11.1057 5.45108 11.5451 4.94297 11.9388 4.60486C12.645 3.983 13.2375 3.50489 13.6475 3.37739C14.0544 3.23427 14.2662 3.44552 14.2662 3.85613L14.2669 3.85425Z" fill="white"/>
</svg>
